{"title":"The.Leftovers.S02.720p.BluRay.x264-DEMAND [Season 2 Two Complete","uid":15660017,"size":29331790153,"categoryP":"video","categoryS":"hd___tv_shows","magnet":"?xt=urn:btih:63040ebfe89a7d33cf8bb1191f4bdb55344903ad&amp;dn=The.Leftovers.S02.720p.BluRay.x264-DEMAND+%5BSeason+2+Two+Complete&amp;tr=udp%3A%2F%2Ftracker.leechers-paradise.org%3A6969&amp;tr=udp%3A%2F%2Fzer0day.ch%3A1337&amp;tr=udp%3A%2F%2Fopen.demonii.com%3A1337&amp;tr=udp%3A%2F%2Ftracker.coppersurfer.tk%3A6969&amp;tr=udp%3A%2F%2Fexodus.desync.com%3A6969","seeders":0,"leechers":2,"uploader":"GoodFilms","files":30,"time":1472175092,"description":"The.Leftovers.S02.720p.BluRay.x264-DEMAND [Season 2 Two Complete\r\n \nhttp://www.imdb.com/title/tt2699128/\r\n\r\nVideo\r\nID                                       : 1\r\nFormat                                   : AVC\r\nFormat/Info                              : Advanced Video Codec\r\nFormat profile                           :   \r\nFormat settings, CABAC                   : Yes\r\nFormat settings, ReFrames                : 5 frames\r\nCodec ID                                 : V_MPEG4/ISO/AVC\r\nDuration                                 : 1h 11mn\r\nBit rate                                 : 5 017 Kbps\r\nWidth                                    : 1 280 pixels\r\nHeight                                   : 720 pixels\r\nDisplay aspect ratio                     : 16:9\r\nFrame rate mode                          : Constant\r\nFrame rate                               : 23.976 fps\r\nColor space                              : YUV\r\nChroma subsampling                       : 4:2:0\r\nBit depth                                : 8 bits\r\nScan type                                : Progressive\r\nBits/(Pixel*Frame)                       : 0.227\r\nStream size                              : 2.52 GiB (77%)\r\nWriting library                          : x264 core 148 r2665 a01e339\r\nLanguage                                 : English\r\nDefault                                  : Yes\r\nForced                                   : No\r\n\r\nAudio\r\nID                                       : 2\r\nFormat                                   : DTS\r\nFormat/Info                              : Digital Theater Systems\r\nMode                                     : 16\r\nFormat settings, Endianness              : Big\r\nCodec ID                                 : A_DTS\r\nDuration                                 : 1h 11mn\r\nBit rate mode                            : Constant\r\nBit rate                                 : 1 509 Kbps\r\nChannel(s)                               : 6 channels\r\nChannel positions                        : Front: L C R, Side: L R, LFE\r\nSampling rate                            : 48.0 KHz\r\nFrame rate                               : 93.750 fps (512 spf)\r\nBit depth                                : 24 bits\r\nCompression mode                         : Lossy\r\nStream size                              : 776 MiB (23%)\r\nLanguage                                 : English\r\nDefault                                  : Yes\r\nForced                                   : No\r\n\r\nMenu\r\n00:00:00.000                             : en:00:00:00.000\r\n00:01:32.050                             : en:00:01:32.050\r\n00:14:45.885                             : en:00:14:45.885\r\n00:32:16.268                             : en:00:32:16.268\r\n00:47:59.460                             : en:00:47:59.460\r\n00:57:48.757                             : en:00:57:48.757\r\n01:10:50.329                             : en:01:10:50.329\r\n\r\nSubs:  https://subscene.com/subtitles/the-leftovers-second-season/english/1302345","torrent":{"xt":"urn:btih:63040ebfe89a7d33cf8bb1191f4bdb55344903ad","amp;dn":"The.Leftovers.S02.720p.BluRay.x264-DEMAND+%5BSeason+2+Two+Complete","amp;tr":["udp%3A%2F%2Ftracker.leechers-paradise.org%3A6969","udp%3A%2F%2Fzer0day.ch%3A1337","udp%3A%2F%2Fopen.demonii.com%3A1337","udp%3A%2F%2Ftracker.coppersurfer.tk%3A6969","udp%3A%2F%2Fexodus.desync.com%3A6969"],"infoHash":"63040ebfe89a7d33cf8bb1191f4bdb55344903ad","infoHashBuffer":{"type":"Buffer","data":[99,4,14,191,232,154,125,51,207,139,177,25,31,75,219,85,52,73,3,173]},"announce":[],"urlList":[]}}